<mxfile host="app.diagrams.net" agent="Mozilla/5.0 (Windows NT 10.0; Win64; x64) AppleWebKit/537.36 (KHTML, like Gecko) Chrome/128.0.0.0 Safari/537.36 Edg/128.0.0.0" version="24.8.4">
  <diagram name="第 1 页" id="4sHjBxtwGM4o91MgFcDO">
    <mxGraphModel dx="1746" dy="1093" grid="1" gridSize="10" guides="1" tooltips="1" connect="1" arrows="1" fold="1" page="1" pageScale="1" pageWidth="827" pageHeight="1169" math="0" shadow="0">
      <root>
        <mxCell id="0" />
        <mxCell id="1" parent="0" />
        <mxCell id="SPQ4cZpdT56W2JDlq7Dd-26" value="&lt;font style=&quot;font-size: 36px;&quot;&gt;Server层&lt;/font&gt;" style="rounded=0;whiteSpace=wrap;html=1;" parent="1" vertex="1">
          <mxGeometry x="140" y="400" width="1330" height="450" as="geometry" />
        </mxCell>
        <mxCell id="SPQ4cZpdT56W2JDlq7Dd-1" value="" style="edgeStyle=orthogonalEdgeStyle;rounded=0;orthogonalLoop=1;jettySize=auto;html=1;" parent="1" source="SPQ4cZpdT56W2JDlq7Dd-4" target="SPQ4cZpdT56W2JDlq7Dd-9" edge="1">
          <mxGeometry relative="1" as="geometry" />
        </mxCell>
        <mxCell id="SPQ4cZpdT56W2JDlq7Dd-2" value="" style="edgeStyle=orthogonalEdgeStyle;rounded=0;orthogonalLoop=1;jettySize=auto;html=1;" parent="1" source="SPQ4cZpdT56W2JDlq7Dd-4" target="SPQ4cZpdT56W2JDlq7Dd-19" edge="1">
          <mxGeometry relative="1" as="geometry" />
        </mxCell>
        <mxCell id="SPQ4cZpdT56W2JDlq7Dd-3" value="语法树" style="edgeLabel;html=1;align=center;verticalAlign=middle;resizable=0;points=[];" parent="SPQ4cZpdT56W2JDlq7Dd-2" vertex="1" connectable="0">
          <mxGeometry x="-0.1817" y="-1" relative="1" as="geometry">
            <mxPoint as="offset" />
          </mxGeometry>
        </mxCell>
        <mxCell id="SPQ4cZpdT56W2JDlq7Dd-4" value="解析器" style="rounded=0;whiteSpace=wrap;html=1;" parent="1" vertex="1">
          <mxGeometry x="292" y="447" width="120" height="60" as="geometry" />
        </mxCell>
        <mxCell id="SPQ4cZpdT56W2JDlq7Dd-5" style="edgeStyle=orthogonalEdgeStyle;rounded=0;orthogonalLoop=1;jettySize=auto;html=1;exitX=0;exitY=0.5;exitDx=0;exitDy=0;" parent="1" source="SPQ4cZpdT56W2JDlq7Dd-7" target="SPQ4cZpdT56W2JDlq7Dd-4" edge="1">
          <mxGeometry relative="1" as="geometry" />
        </mxCell>
        <mxCell id="SPQ4cZpdT56W2JDlq7Dd-6" value="建立连接&lt;div&gt;&lt;br&gt;&lt;/div&gt;&lt;div&gt;发送SQL语句&lt;/div&gt;" style="edgeLabel;html=1;align=center;verticalAlign=middle;resizable=0;points=[];" parent="SPQ4cZpdT56W2JDlq7Dd-5" vertex="1" connectable="0">
          <mxGeometry x="-0.1723" y="1" relative="1" as="geometry">
            <mxPoint y="22" as="offset" />
          </mxGeometry>
        </mxCell>
        <mxCell id="SPQ4cZpdT56W2JDlq7Dd-7" value="&lt;font style=&quot;font-size: 36px;&quot;&gt;client&lt;/font&gt;" style="rounded=0;whiteSpace=wrap;html=1;" parent="1" vertex="1">
          <mxGeometry x="400" y="260" width="840" height="70" as="geometry" />
        </mxCell>
        <mxCell id="SPQ4cZpdT56W2JDlq7Dd-8" value="" style="edgeStyle=orthogonalEdgeStyle;rounded=0;orthogonalLoop=1;jettySize=auto;html=1;" parent="1" source="SPQ4cZpdT56W2JDlq7Dd-9" target="SPQ4cZpdT56W2JDlq7Dd-11" edge="1">
          <mxGeometry relative="1" as="geometry" />
        </mxCell>
        <mxCell id="SPQ4cZpdT56W2JDlq7Dd-9" value="词法解析" style="ellipse;whiteSpace=wrap;html=1;" parent="1" vertex="1">
          <mxGeometry x="466" y="437" width="120" height="80" as="geometry" />
        </mxCell>
        <mxCell id="SPQ4cZpdT56W2JDlq7Dd-10" value="" style="edgeStyle=orthogonalEdgeStyle;rounded=0;orthogonalLoop=1;jettySize=auto;html=1;" parent="1" source="SPQ4cZpdT56W2JDlq7Dd-11" target="SPQ4cZpdT56W2JDlq7Dd-13" edge="1">
          <mxGeometry relative="1" as="geometry" />
        </mxCell>
        <mxCell id="SPQ4cZpdT56W2JDlq7Dd-11" value="词法单元" style="rounded=0;whiteSpace=wrap;html=1;" parent="1" vertex="1">
          <mxGeometry x="666" y="447" width="120" height="60" as="geometry" />
        </mxCell>
        <mxCell id="SPQ4cZpdT56W2JDlq7Dd-12" value="" style="edgeStyle=orthogonalEdgeStyle;rounded=0;orthogonalLoop=1;jettySize=auto;html=1;" parent="1" source="SPQ4cZpdT56W2JDlq7Dd-13" target="SPQ4cZpdT56W2JDlq7Dd-15" edge="1">
          <mxGeometry relative="1" as="geometry" />
        </mxCell>
        <mxCell id="SPQ4cZpdT56W2JDlq7Dd-13" value="语法解析" style="ellipse;whiteSpace=wrap;html=1;" parent="1" vertex="1">
          <mxGeometry x="836" y="437" width="120" height="80" as="geometry" />
        </mxCell>
        <mxCell id="SPQ4cZpdT56W2JDlq7Dd-14" value="" style="edgeStyle=orthogonalEdgeStyle;rounded=0;orthogonalLoop=1;jettySize=auto;html=1;" parent="1" source="SPQ4cZpdT56W2JDlq7Dd-15" target="SPQ4cZpdT56W2JDlq7Dd-20" edge="1">
          <mxGeometry relative="1" as="geometry" />
        </mxCell>
        <mxCell id="SPQ4cZpdT56W2JDlq7Dd-15" value="抽象语法树" style="rounded=0;whiteSpace=wrap;html=1;" parent="1" vertex="1">
          <mxGeometry x="1019" y="447" width="120" height="60" as="geometry" />
        </mxCell>
        <mxCell id="SPQ4cZpdT56W2JDlq7Dd-16" value="" style="edgeStyle=orthogonalEdgeStyle;rounded=0;orthogonalLoop=1;jettySize=auto;html=1;" parent="1" source="SPQ4cZpdT56W2JDlq7Dd-19" target="SPQ4cZpdT56W2JDlq7Dd-21" edge="1">
          <mxGeometry relative="1" as="geometry" />
        </mxCell>
        <mxCell id="SPQ4cZpdT56W2JDlq7Dd-17" value="" style="edgeStyle=orthogonalEdgeStyle;rounded=0;orthogonalLoop=1;jettySize=auto;html=1;" parent="1" source="SPQ4cZpdT56W2JDlq7Dd-19" target="SPQ4cZpdT56W2JDlq7Dd-24" edge="1">
          <mxGeometry relative="1" as="geometry">
            <Array as="points">
              <mxPoint x="352" y="697" />
              <mxPoint x="352" y="697" />
            </Array>
          </mxGeometry>
        </mxCell>
        <mxCell id="SPQ4cZpdT56W2JDlq7Dd-18" value="执行计划" style="edgeLabel;html=1;align=center;verticalAlign=middle;resizable=0;points=[];" parent="SPQ4cZpdT56W2JDlq7Dd-17" vertex="1" connectable="0">
          <mxGeometry x="-0.1623" y="1" relative="1" as="geometry">
            <mxPoint as="offset" />
          </mxGeometry>
        </mxCell>
        <mxCell id="SPQ4cZpdT56W2JDlq7Dd-19" value="优化器" style="rounded=0;whiteSpace=wrap;html=1;" parent="1" vertex="1">
          <mxGeometry x="292" y="576" width="120" height="60" as="geometry" />
        </mxCell>
        <mxCell id="SPQ4cZpdT56W2JDlq7Dd-20" value="语义分析" style="ellipse;whiteSpace=wrap;html=1;" parent="1" vertex="1">
          <mxGeometry x="1179" y="437" width="120" height="80" as="geometry" />
        </mxCell>
        <mxCell id="SPQ4cZpdT56W2JDlq7Dd-21" value="const" style="ellipse;whiteSpace=wrap;html=1;" parent="1" vertex="1">
          <mxGeometry x="466" y="566" width="120" height="80" as="geometry" />
        </mxCell>
        <mxCell id="SPQ4cZpdT56W2JDlq7Dd-24" value="执行器" style="rounded=0;whiteSpace=wrap;html=1;" parent="1" vertex="1">
          <mxGeometry x="292" y="707" width="387" height="60" as="geometry" />
        </mxCell>
      </root>
    </mxGraphModel>
  </diagram>
</mxfile>
